<?xml version="1.0" standalone="no"?>
<!DOCTYPE svg PUBLIC "-//W3C//DTD SVG 20010904//EN"
 "http://www.w3.org/TR/2001/REC-SVG-20010904/DTD/svg10.dtd">
<svg version="1.0" xmlns="http://www.w3.org/2000/svg"
 width="512.000000pt" height="512.000000pt" viewBox="0 0 512.000000 512.000000"
 preserveAspectRatio="xMidYMid meet">

<g transform="translate(0.000000,512.000000) scale(0.100000,-0.100000)"
fill="#F25C84" stroke="none">
<path d="M3345 5113 c-209 -25 -383 -77 -554 -164 -416 -211 -709 -595 -813
-1066 -18 -82 -22 -131 -22 -300 -1 -175 -3 -202 -16 -198 -86 25 -322 39
-447 26 -387 -41 -685 -182 -954 -450 -232 -233 -373 -498 -435 -821 -26 -137
-25 -418 3 -553 l20 -99 -63 -31 c-45 -22 -63 -36 -59 -47 2 -8 86 -298 185
-645 100 -347 190 -660 201 -697 l20 -68 1214 0 1214 0 20 68 c11 37 101 350
201 697 99 347 183 637 185 645 4 11 -14 25 -59 47 l-64 32 10 43 c5 24 15 86
22 138 l12 95 777 3 778 2 8 23 c5 12 93 315 196 672 103 358 190 655 192 662
3 7 -22 26 -61 45 -37 18 -64 38 -62 44 2 6 12 60 21 120 25 158 16 428 -18
574 -72 303 -203 537 -421 755 -251 250 -541 395 -883 440 -99 13 -274 17
-348 8z m-5 -478 l0 -175 150 0 150 0 0 175 c0 115 4 175 10 175 6 0 46 -7 88
-16 103 -21 210 -58 307 -107 67 -33 104 -56 209 -129 5 -3 -41 -70 -103 -148
-62 -78 -114 -147 -116 -154 -4 -11 204 -181 222 -181 6 0 57 57 113 128 56
70 104 127 106 127 10 0 116 -173 142 -231 41 -92 79 -212 97 -308 18 -98 19
-333 1 -431 l-11 -65 -55 0 -54 0 -91 157 c-49 86 -93 160 -96 163 -6 6 -259
-133 -259 -142 0 -2 30 -56 66 -119 37 -63 63 -118 60 -122 -4 -3 -26 0 -49 6
-23 7 -85 22 -137 33 -131 29 -305 22 -435 -16 l-90 -26 -70 20 c-177 51 -367
54 -528 7 -91 -27 -122 -31 -131 -18 -2 4 47 84 110 177 63 93 113 172 112
177 -4 9 -239 171 -242 166 -2 -2 -72 -105 -156 -229 l-153 -227 -65 -7 c-36
-4 -83 -13 -105 -21 -22 -8 -44 -11 -48 -7 -5 5 -16 51 -25 103 -24 138 -15
369 20 503 37 146 130 346 199 430 l22 27 130 -120 c72 -65 133 -119 137 -120
8 0 193 208 193 218 0 4 -31 36 -70 71 -38 36 -94 87 -124 115 l-54 50 34 28
c113 95 358 202 529 231 65 11 60 24 60 -168z m-1848 -1697 l3 -173 148 -3
147 -3 0 172 0 172 57 -7 c133 -16 359 -112 500 -212 57 -41 63 -48 50 -62 -7
-10 -60 -75 -116 -145 l-103 -128 29 -22 c15 -12 68 -54 118 -93 l89 -71 99
123 c54 68 103 124 107 124 10 0 78 -107 119 -188 50 -100 98 -257 117 -382
18 -123 15 -253 -7 -387 l-12 -73 -51 0 -51 1 -94 167 c-52 92 -95 168 -97
170 -5 7 -254 -141 -254 -151 0 -5 27 -57 60 -114 33 -58 60 -108 60 -112 0
-4 -13 -12 -30 -18 -24 -9 -42 -7 -104 13 -101 32 -183 44 -296 44 -94 0 -234
-24 -315 -53 -36 -13 -45 -12 -94 4 -165 57 -398 64 -558 16 -45 -13 -79 -19
-76 -13 4 6 60 82 125 169 65 86 121 163 124 171 3 8 -40 46 -112 101 -98 73
-119 85 -128 73 -6 -8 -87 -117 -181 -241 l-170 -227 -91 0 -92 0 -13 83 c-20
115 -17 342 5 445 23 110 65 230 111 322 41 81 111 190 123 190 4 0 64 -52
134 -115 70 -63 130 -115 134 -115 4 0 34 30 68 67 33 37 78 86 98 109 l37 40
-129 115 c-71 63 -129 117 -129 120 -2 11 141 105 214 141 96 48 204 87 305
108 133 29 119 46 122 -152z m1880 33 c42 -11 99 -31 127 -45 62 -32 65 -32
131 0 173 83 374 84 552 2 l68 -31 59 27 c108 48 213 69 321 64 53 -3 103 -9
112 -14 13 -8 0 -62 -103 -419 -65 -225 -124 -427 -129 -448 l-11 -37 -671 2
-671 3 -19 95 c-53 263 -186 533 -353 718 -32 35 -56 64 -54 66 2 2 33 -9 68
-25 35 -16 69 -29 75 -29 7 0 36 12 66 26 131 63 294 80 432 45z m-2670 -1710
c42 -11 103 -33 136 -50 l61 -31 63 30 c195 91 401 92 599 3 l64 -29 64 29
c197 89 404 88 599 -3 l62 -29 48 24 c132 66 306 92 435 65 31 -6 57 -12 57
-13 -1 -1 -62 -216 -138 -477 l-137 -475 -990 -2 -990 -3 -134 468 c-74 257
-136 472 -138 479 -12 34 223 43 339 14z"/>
<path d="M3254 4088 c-38 -68 -69 -127 -69 -131 0 -4 119 -75 264 -157 l265
-149 74 130 c41 72 72 131 71 133 -14 10 -509 286 -521 291 -12 5 -32 -23 -84
-117z"/>
<path d="M1422 2443 c-70 -119 -107 -191 -102 -196 3 -3 122 -71 265 -151 241
-137 260 -146 273 -129 7 10 40 67 74 127 50 90 58 110 47 121 -8 7 -108 65
-224 130 -115 65 -229 128 -252 142 l-42 24 -39 -68z"/>
</g>
</svg>
