<?xml version="1.0" standalone="no"?>
<!DOCTYPE svg PUBLIC "-//W3C//DTD SVG 20010904//EN"
 "http://www.w3.org/TR/2001/REC-SVG-20010904/DTD/svg10.dtd">
<svg version="1.0" xmlns="http://www.w3.org/2000/svg"
 width="512.000000pt" height="512.000000pt" viewBox="0 0 512.000000 512.000000"
 preserveAspectRatio="xMidYMid meet">

<g transform="translate(0.000000,512.000000) scale(0.100000,-0.100000)"
fill="#F25C84" stroke="none">
<path d="M3058 5110 c-284 -48 -527 -276 -594 -557 -9 -42 -22 -73 -29 -73 -7
0 -44 -16 -82 -35 -208 -104 -306 -371 -214 -581 l19 -41 -117 -6 c-191 -9
-308 -60 -419 -182 -102 -111 -148 -244 -139 -397 l6 -88 -83 0 c-155 0 -276
-51 -387 -161 -114 -113 -168 -259 -156 -419 l6 -79 -37 -6 c-214 -36 -385
-185 -448 -390 -34 -114 -18 -278 38 -389 63 -124 179 -223 309 -266 41 -14
75 -25 76 -25 1 0 67 -304 147 -675 141 -652 147 -676 176 -705 l30 -30 1400
0 1400 0 30 30 c29 29 35 54 175 700 80 369 145 672 145 675 0 3 34 16 75 29
221 69 367 273 368 511 2 265 -193 489 -465 535 l-37 6 6 79 c12 160 -42 306
-156 419 -111 110 -232 161 -387 161 l-83 0 6 88 c9 153 -37 286 -139 397
-111 122 -228 173 -419 182 l-117 6 19 41 c101 229 -26 519 -264 606 -26 9
-28 13 -22 43 12 59 64 152 117 210 91 97 196 148 342 163 58 6 75 12 103 38
28 25 34 39 35 72 1 104 -74 141 -234 114z m-450 -851 c61 -13 127 -66 153
-123 11 -24 19 -64 19 -96 0 -127 -93 -220 -220 -220 -127 0 -220 93 -220 220
0 121 82 209 212 229 4 1 29 -4 56 -10z m605 -699 c68 -25 132 -88 165 -159
21 -44 26 -71 25 -126 0 -38 -6 -82 -12 -97 l-11 -28 -626 0 c-607 0 -627 -1
-654 -20 -79 -56 -53 -185 41 -204 18 -3 391 -6 830 -6 792 0 799 0 856 -21
123 -47 197 -154 197 -289 0 -65 -4 -83 -32 -138 -43 -85 -43 -133 1 -176 l32
-33 131 -5 c112 -5 140 -9 185 -30 114 -53 179 -157 179 -287 0 -91 -41 -175
-112 -231 -94 -75 41 -70 -1848 -70 -1889 0 -1754 -5 -1848 70 -177 139 -140
420 68 519 l55 26 1390 5 c1104 4 1395 8 1412 18 26 15 53 62 53 92 0 39 -31
88 -65 104 -29 14 -164 16 -1269 16 l-1236 0 -12 28 c-20 49 -14 161 11 219
30 68 101 134 174 162 51 18 78 21 228 21 131 0 177 3 199 15 69 35 77 97 28
201 -28 58 -33 80 -33 139 1 126 78 242 190 285 47 18 81 19 652 19 578 1 604
0 656 -19z m-1583 -2163 c0 -7 27 -263 60 -568 33 -305 60 -564 60 -576 l0
-23 -225 0 c-124 0 -225 2 -225 5 0 3 -56 265 -125 583 -69 319 -125 582 -125
585 0 4 131 7 290 7 233 0 290 -3 290 -13z m810 -577 l0 -590 -225 0 -224 0
-5 33 c-3 17 -31 266 -61 552 -30 286 -58 537 -61 558 l-6 37 291 0 291 0 0
-590z m816 553 c-3 -21 -31 -272 -61 -558 -30 -286 -58 -535 -61 -552 l-5 -33
-224 0 -225 0 0 590 0 590 291 0 291 0 -6 -37z m814 30 c0 -3 -56 -266 -125
-585 -69 -318 -125 -580 -125 -583 0 -3 -101 -5 -225 -5 l-225 0 0 23 c0 12
27 271 60 576 33 305 60 561 60 568 0 10 57 13 290 13 160 0 290 -3 290 -7z"/>
</g>
</svg>
