<?xml version="1.0" standalone="no"?>
<!DOCTYPE svg PUBLIC "-//W3C//DTD SVG 20010904//EN"
 "http://www.w3.org/TR/2001/REC-SVG-20010904/DTD/svg10.dtd">
<svg version="1.0" xmlns="http://www.w3.org/2000/svg"
 width="512.000000pt" height="512.000000pt" viewBox="0 0 512.000000 512.000000"
 preserveAspectRatio="xMidYMid meet">

<g transform="translate(0.000000,512.000000) scale(0.100000,-0.100000)"
fill="#F25C84" stroke="none">
<path d="M4565 5106 c-83 -20 -146 -56 -211 -120 -71 -71 -109 -145 -126 -245
-33 -192 71 -390 247 -473 181 -84 371 -52 511 87 71 70 109 143 126 244 24
142 -21 282 -126 387 -114 113 -268 157 -421 120z m175 -306 c45 -23 80 -80
80 -130 0 -17 -9 -49 -20 -70 -23 -45 -80 -80 -130 -80 -50 0 -107 35 -130 80
-25 50 -25 90 0 140 37 73 124 99 200 60z"/>
<path d="M1781 4948 c-52 -27 -81 -74 -81 -131 0 -45 10 -67 61 -128 22 -26
54 -78 72 -115 30 -65 32 -75 32 -179 -1 -128 -19 -188 -85 -270 -69 -87 -73
-96 -78 -148 -3 -42 1 -59 20 -87 28 -42 80 -70 128 -70 105 0 249 191 301
400 18 70 21 104 17 205 -7 174 -54 303 -158 434 -82 104 -151 130 -229 89z"/>
<path d="M3480 4948 c-54 -28 -82 -72 -82 -132 0 -57 27 -103 74 -127 67 -34
134 -21 187 35 19 20 26 40 28 84 5 72 -19 115 -80 142 -54 25 -73 25 -127 -2z"/>
<path d="M2625 4521 c-48 -29 -67 -57 -72 -105 -8 -69 3 -94 75 -168 l66 -69
-61 -62 c-73 -74 -83 -93 -83 -149 0 -80 66 -148 143 -148 51 0 81 18 151 89
l60 60 72 -69 c77 -72 114 -89 175 -76 67 13 119 77 119 148 0 41 -40 106
-104 167 l-46 45 69 71 c50 52 71 81 76 107 18 98 -47 178 -145 178 -54 0 -73
-11 -147 -83 l-62 -61 -65 62 c-35 34 -76 66 -91 72 -41 15 -97 12 -130 -9z"/>
<path d="M3887 4109 c-64 -15 -130 -55 -180 -108 -59 -63 -85 -120 -96 -206
-4 -36 -14 -73 -23 -81 -8 -9 -44 -19 -80 -24 -87 -10 -147 -39 -212 -100 -64
-60 -103 -141 -113 -230 -7 -72 -20 -85 -101 -93 -80 -9 -164 -51 -222 -113
-64 -67 -91 -129 -97 -219 -4 -58 -1 -75 16 -103 43 -68 130 -91 201 -53 39
20 80 89 80 132 0 34 32 59 75 59 17 0 55 7 85 16 139 41 244 165 257 304 8
81 21 97 90 106 90 10 157 40 218 95 66 61 102 130 118 230 14 81 25 92 99
104 70 11 127 97 114 170 -4 19 -19 49 -33 66 -46 54 -106 69 -196 48z"/>
<path d="M1172 3900 c-71 -17 -122 -99 -108 -175 6 -29 28 -58 96 -129 l88
-91 -624 -1664 c-343 -915 -624 -1678 -624 -1694 0 -69 78 -147 147 -147 16 0
779 281 1694 624 l1664 624 91 -88 c71 -68 100 -90 129 -96 108 -20 203 81
175 186 -8 28 -266 292 -1317 1343 -720 719 -1315 1307 -1323 1307 -8 0 -24 2
-35 4 -11 3 -35 1 -53 -4z m2090 -2421 c-4 -3 -142 -56 -307 -118 l-299 -112
-704 704 -703 703 111 294 c61 162 113 302 116 310 3 9 305 -286 899 -880 492
-492 891 -897 887 -901z m-1517 261 c442 -442 596 -603 586 -609 -7 -5 -76
-32 -154 -61 l-140 -52 -510 510 -509 509 37 99 c20 55 46 123 57 152 11 28
23 52 26 52 4 0 277 -270 607 -600z m-426 -424 l413 -413 -157 -58 -156 -59
-316 317 -317 316 58 155 c32 86 59 156 60 156 0 0 187 -186 415 -414z m-217
-647 c-11 -9 -685 -260 -689 -256 -2 2 53 154 122 338 69 184 128 341 131 348
3 10 77 -57 224 -204 121 -121 216 -222 212 -226z"/>
<path d="M2190 3668 c-125 -86 -64 -273 88 -270 108 1 178 128 122 220 -44 71
-144 95 -210 50z"/>
<path d="M4742 3670 c-127 -77 -76 -272 72 -272 79 0 137 50 152 128 8 45 -26
118 -68 144 -43 26 -113 26 -156 0z"/>
<path d="M3902 3253 c-60 -29 -91 -96 -78 -168 5 -26 27 -57 76 -109 l69 -72
-60 -60 c-71 -70 -89 -100 -89 -151 0 -77 68 -143 148 -143 56 0 75 10 149 83
l62 61 69 -66 c74 -72 99 -83 168 -75 93 10 149 110 114 202 -6 15 -38 56 -72
91 l-62 65 61 62 c72 74 83 93 83 147 0 99 -84 166 -182 145 -21 -5 -57 -31
-104 -76 l-70 -69 -45 46 c-93 97 -164 123 -237 87z"/>
<path d="M3470 2398 c-51 -35 -72 -69 -72 -120 -3 -152 184 -213 270 -88 29
43 30 112 2 158 -43 70 -136 93 -200 50z"/>
<path d="M4210 2150 c-105 -28 -203 -78 -286 -143 -101 -81 -126 -148 -86
-227 42 -84 150 -105 227 -44 138 109 217 139 353 132 72 -3 99 -10 156 -36
37 -18 89 -49 115 -71 61 -51 83 -61 126 -61 97 0 166 84 148 180 -14 77 -180
202 -338 256 -111 38 -303 44 -415 14z"/>
</g>
</svg>
