<?xml version="1.0" standalone="no"?>
<!DOCTYPE svg PUBLIC "-//W3C//DTD SVG 20010904//EN"
 "http://www.w3.org/TR/2001/REC-SVG-20010904/DTD/svg10.dtd">
<svg version="1.0" xmlns="http://www.w3.org/2000/svg"
 width="512.000000pt" height="512.000000pt" viewBox="0 0 512.000000 512.000000"
 preserveAspectRatio="xMidYMid meet">

<g transform="translate(0.000000,512.000000) scale(0.100000,-0.100000)"
fill="#F25C84" stroke="none">
<path d="M2805 4604 c-122 -26 -221 -74 -294 -144 -80 -76 -131 -167 -160
-285 l-10 -40 -1123 -435 c-617 -239 -1136 -444 -1152 -455 -17 -11 -39 -36
-49 -55 -16 -33 -17 -111 -15 -1312 3 -1272 3 -1277 24 -1304 11 -15 33 -37
48 -48 l27 -21 2459 0 2459 0 27 21 c15 11 37 33 48 48 21 27 21 30 21 1354 0
1227 -1 1334 -18 1417 -57 296 -170 523 -368 741 -270 298 -630 472 -1044 505
l-140 12 -146 -57 c-80 -31 -151 -56 -158 -56 -7 0 -25 8 -39 19 -108 76 -284
118 -397 95z m192 -323 c158 -80 177 -301 35 -408 -205 -155 -481 70 -364 297
63 124 208 173 329 111z m813 -8 c402 -80 731 -335 900 -696 38 -81 82 -217
93 -289 l6 -38 -1957 1 c-1076 0 -1948 4 -1937 8 225 93 1470 569 1476 565 5
-3 18 -23 30 -45 11 -22 46 -66 79 -99 107 -107 282 -171 426 -155 142 15 233
56 335 152 118 112 177 263 166 423 -4 41 -9 87 -12 101 -7 26 -3 28 82 62 81
33 94 36 163 31 41 -3 109 -13 150 -21z m1010 -1522 l0 -199 -43 -32 c-57 -43
-208 -115 -282 -135 -92 -25 -285 -31 -381 -11 -147 29 -281 95 -398 195 -94
80 -159 81 -248 5 -180 -155 -375 -222 -608 -211 -178 8 -332 62 -459 160
-122 96 -142 107 -185 107 -45 0 -84 -22 -181 -101 -66 -53 -186 -114 -282
-141 -67 -20 -100 -23 -233 -22 -142 0 -162 3 -240 28 -135 45 -213 88 -320
180 -88 75 -155 74 -249 -4 -109 -90 -221 -151 -331 -180 -25 -6 -53 -13 -62
-16 -17 -5 -18 13 -18 285 l0 291 2260 0 2260 0 0 -199z m-3889 -526 c171
-103 340 -153 545 -162 250 -11 481 51 683 185 48 32 55 34 75 22 92 -59 152
-92 214 -118 365 -156 800 -110 1123 119 12 9 34 0 108 -44 170 -103 340 -154
538 -164 194 -9 375 24 532 97 35 17 65 30 67 30 2 0 4 -313 4 -695 l0 -695
-2260 0 -2260 0 0 634 0 634 72 12 c127 22 304 94 403 163 28 20 53 36 58 36
4 1 48 -24 98 -54z"/>
</g>
</svg>
